<?xml version="1.0" standalone="no"?>
<!DOCTYPE svg PUBLIC "-//W3C//DTD SVG 20010904//EN"
 "http://www.w3.org/TR/2001/REC-SVG-20010904/DTD/svg10.dtd">
<svg version="1.0" xmlns="http://www.w3.org/2000/svg"
 width="512.000000pt" height="512.000000pt" viewBox="0 0 512.000000 512.000000"
 preserveAspectRatio="xMidYMid meet">

<g transform="translate(0.000000,512.000000) scale(0.100000,-0.100000)"
fill="#000000" stroke="none">
<path d="M1860 3678 c-18 -73 -36 -136 -39 -141 -4 -4 -29 -3 -57 3 -122 25
-113 26 -128 -11 -8 -19 -26 -92 -40 -164 -25 -122 -28 -132 -61 -160 -19 -16
-42 -47 -50 -67 -19 -48 -91 -338 -141 -570 -31 -148 -36 -181 -26 -203 l12
-25 555 2 556 3 47 54 48 54 64 -5 c62 -4 65 -6 109 -56 59 -67 87 -73 171
-37 65 27 399 149 675 246 83 28 155 59 162 68 21 27 15 65 -23 147 -20 44
-86 189 -145 324 -87 198 -113 246 -132 253 -18 6 -31 29 -62 113 l-38 105
-32 -31 c-61 -59 -117 -72 -340 -81 -239 -9 -301 -23 -358 -85 l-24 -26 -26
44 c-56 95 -113 129 -286 173 -143 36 -224 79 -306 164 -22 22 -43 41 -46 41
-4 0 -21 -60 -39 -132z m81 45 c23 -28 128 -91 188 -114 31 -11 95 -29 143
-39 106 -23 173 -56 220 -108 56 -62 60 -75 53 -155 -3 -40 -2 -85 3 -102 l9
-30 8 39 c4 21 5 67 2 102 -6 61 -5 64 25 89 17 14 42 32 57 39 46 24 162 36
311 34 157 -2 241 13 307 53 19 12 36 19 39 16 3 -3 31 -78 63 -168 65 -183
141 -372 148 -365 8 7 -54 179 -96 265 -22 47 -39 86 -37 88 18 19 68 -63 82
-137 4 -16 11 -27 16 -24 6 4 8 -2 3 -15 -4 -12 -2 -21 4 -21 6 0 8 -7 5 -15
-4 -10 0 -15 12 -16 11 0 14 -3 8 -5 -7 -3 -9 -14 -7 -25 5 -16 8 -18 15 -7 7
9 8 7 4 -7 -3 -12 21 -91 58 -190 36 -93 61 -173 58 -176 -10 -9 -535 -204
-672 -250 -63 -21 -131 -40 -150 -44 -32 -5 -37 -3 -57 29 -29 44 -69 66 -147
77 -86 12 -131 -2 -183 -58 l-41 -44 -495 -6 -494 -6 5 34 c5 31 6 32 12 10 5
-22 9 -18 32 35 14 32 29 74 32 92 4 17 11 34 15 36 3 3 38 -4 76 -15 127 -35
232 -22 411 50 101 40 176 62 274 80 30 5 40 9 22 7 -22 -2 -29 1 -22 8 5 5
31 11 56 12 25 1 49 6 52 10 9 9 -171 -3 -244 -18 -82 -15 -348 -15 -404 0
-25 7 -69 22 -99 34 l-53 21 6 57 c4 32 13 129 21 216 13 143 35 274 65 385
11 39 12 40 47 33 79 -15 127 -31 131 -43 3 -8 0 -11 -7 -7 -7 5 -9 1 -5 -9 4
-8 1 -22 -6 -30 -6 -8 -9 -18 -7 -23 3 -4 -3 -27 -13 -50 -11 -23 -15 -42 -11
-42 4 0 2 -30 -5 -67 -7 -38 -13 -84 -13 -103 1 -32 3 -30 20 25 11 33 28 116
39 185 24 152 79 390 90 390 4 0 14 -8 21 -17z m-379 -570 c-3 -16 -9 -31 -14
-34 -5 -3 -11 -48 -13 -100 -6 -166 -40 -358 -75 -423 -16 -32 -30 -68 -31
-80 0 -11 -3 -16 -5 -10 -3 6 7 76 21 154 15 78 24 144 21 148 -3 3 -6 -4 -6
-15 0 -12 -7 -24 -16 -27 -26 -10 -28 -7 -9 14 10 11 15 20 10 20 -4 0 -1 8 6
17 10 11 10 14 2 9 -23 -13 -14 12 9 28 12 9 17 16 10 16 -7 0 -11 4 -8 9 4 5
1 11 -6 13 -8 3 -2 12 15 22 24 16 41 66 17 51 -5 -3 -7 -12 -3 -20 3 -8 1
-15 -4 -15 -18 0 -12 42 7 47 23 6 38 71 18 85 -9 7 -8 8 6 4 16 -6 18 -2 14
31 -3 23 1 47 10 61 20 30 30 28 24 -5z m1997 -124 c17 -56 9 -58 -11 -3 -8
24 -12 44 -8 44 4 0 12 -18 19 -41z m-2053 -6 c-10 -10 -19 5 -10 18 6 11 8
11 12 0 2 -7 1 -15 -2 -18z m2113 -127 c6 -7 6 -17 1 -26 -8 -13 -10 -12 -10
3 0 10 -8 36 -19 57 -10 21 -16 42 -13 45 4 3 12 -11 19 -31 7 -20 17 -42 22
-48z m24 -62 c-4 -12 -8 -13 -14 -3 -9 15 -2 32 11 24 5 -3 6 -13 3 -21z
m-1922 -88 l58 -11 -30 -48 c-16 -26 -27 -47 -24 -47 3 0 20 23 37 52 18 28
33 47 35 42 3 -10 87 -10 170 1 58 7 64 1 33 -33 -26 -28 -33 -28 -25 1 4 17
2 16 -10 -6 -10 -17 -22 -26 -30 -23 -7 2 -19 -2 -26 -10 -6 -8 -17 -13 -23
-13 -6 1 -24 -3 -41 -10 -57 -25 -169 -25 -251 0 l-75 22 6 41 c4 23 17 52 29
66 13 15 15 19 4 11 -16 -12 -18 -11 -18 7 0 19 1 19 61 -5 34 -14 88 -30 120
-37z m499 20 c0 -3 -4 -8 -10 -11 -5 -3 -10 -1 -10 4 0 6 5 11 10 11 6 0 10
-2 10 -4z m-777 -45 c-4 -3 -9 -23 -10 -45 -2 -35 -30 -73 -43 -59 -3 2 3 10
13 17 20 15 23 30 5 21 -7 -4 -4 1 6 9 13 10 15 16 7 16 -9 0 -10 4 -4 13 6 6
9 21 7 32 -4 24 19 42 24 18 2 -8 0 -18 -5 -22z m707 30 c0 -5 -7 -11 -15 -15
-15 -5 -20 5 -8 17 9 10 23 9 23 -2z m30 -1 c0 -5 -5 -10 -11 -10 -5 0 -7 5
-4 10 3 6 8 10 11 10 2 0 4 -4 4 -10z m-113 -27 c-13 -14 -17 -14 -17 -3 0 9
-5 8 -15 -6 -8 -10 -14 -14 -15 -9 0 18 18 38 28 31 6 -3 14 -1 17 5 4 5 10 8
13 4 3 -3 -2 -13 -11 -22z m43 17 c0 -5 -5 -10 -11 -10 -5 0 -7 5 -4 10 3 6 8
10 11 10 2 0 4 -4 4 -10z m1581 -20 c8 24 8 23 6 -5 -3 -42 -22 -38 -23 5 -2
32 -1 33 4 5 l5 -30 8 25z m-34 -42 c-3 -7 -5 -2 -5 12 0 14 2 19 5 13 2 -7 2
-19 0 -25z m-20 -10 c-3 -7 -5 -2 -5 12 0 14 2 19 5 13 2 -7 2 -19 0 -25z
m-47 2 c-19 -12 -30 -12 -30 -1 0 10 31 20 40 14 2 -2 -2 -8 -10 -13z m-40
-10 c0 -5 -4 -10 -10 -10 -5 0 -10 5 -10 10 0 6 5 10 10 10 6 0 10 -4 10 -10z
m-70 -30 c0 13 1 13 10 0 6 -9 5 -17 -3 -22 -20 -13 -27 -9 -27 15 0 18 2 19
10 7 9 -13 10 -13 10 0z m-30 -20 c0 -11 -4 -20 -10 -20 -5 0 -10 9 -10 20 0
11 5 20 10 20 6 0 10 -9 10 -20z m-2040 -35 c-7 -8 -18 -15 -24 -15 -6 0 -2 7
8 15 12 9 15 15 7 15 -11 0 -11 3 0 17 13 15 14 15 17 -1 2 -9 -2 -23 -8 -31z
m2010 26 c0 -10 -7 -21 -15 -25 -11 -4 -15 1 -15 17 0 18 2 19 10 7 8 -13 10
-12 10 3 0 9 2 17 5 17 3 0 5 -9 5 -19z m-43 -23 c-3 -8 -6 -5 -6 6 -1 11 2
17 5 13 3 -3 4 -12 1 -19z m-19 -4 c-2 -10 -21 -22 -45 -29 -39 -12 -41 -11
-30 5 6 10 19 17 29 15 10 -2 18 1 18 6 0 6 5 7 10 4 6 -3 10 -1 10 4 0 6 3
11 6 11 3 0 4 -7 2 -16z m-98 -39 c0 -8 -4 -15 -10 -15 -5 0 -7 7 -4 15 4 8 8
15 10 15 2 0 4 -7 4 -15z m-43 -17 c-3 -8 -6 -5 -6 6 -1 11 2 17 5 13 3 -3 4
-12 1 -19z m-1817 5 c0 -3 -8 -15 -17 -26 -10 -11 -12 -17 -5 -13 19 11 14
-15 -5 -30 -17 -13 -17 -14 2 -7 16 5 18 4 10 -8 -13 -18 -13 -55 0 -50 6 1 9
6 8 10 -1 4 18 7 43 7 24 -1 44 -4 44 -8 0 -4 -13 -6 -30 -4 -17 2 -35 -3 -41
-10 -14 -17 -39 -19 -39 -3 0 5 -4 8 -9 5 -12 -8 -5 97 8 123 11 20 31 29 31
14z m1800 -9 c0 -10 -6 -14 -15 -10 -8 3 -15 1 -15 -4 0 -6 -11 -10 -24 -10
-13 0 -27 -6 -29 -12 -4 -8 -6 -7 -6 3 -1 18 25 33 40 23 5 -3 9 -1 9 5 0 5 8
12 18 14 9 3 18 5 20 6 1 0 2 -6 2 -15z m-620 -19 c0 6 9 11 20 12 11 1 20 -4
20 -11 0 -18 -52 -15 -57 4 -4 13 -3 13 6 0 6 -8 11 -10 11 -5z m77 -1 c5 -13
7 -13 14 -2 7 10 9 9 9 -4 0 -10 -7 -18 -15 -18 -8 0 -15 8 -15 18 0 14 -2 15
-10 2 -8 -13 -10 -12 -10 3 0 21 19 22 27 1z m-137 -4 c0 -5 -7 -16 -16 -25
-19 -18 -38 -7 -29 16 6 16 45 24 45 9z m193 -28 c-4 -9 -3 -14 2 -10 9 8 40
-20 32 -29 -3 -3 -13 2 -22 11 -9 9 -20 16 -24 16 -3 0 -7 8 -7 19 0 11 6 17
13 14 6 -3 9 -12 6 -21z m367 15 c0 -7 -11 -14 -25 -15 -14 -1 -25 1 -25 3 0
4 31 20 48 24 1 1 2 -5 2 -12z m-80 -27 c0 -5 -5 -10 -11 -10 -5 0 -7 5 -4 10
3 6 8 10 11 10 2 0 4 -4 4 -10z m-557 -17 c-6 -16 -5 -16 10 -5 14 12 15 11 4
-12 -11 -24 -12 -24 -20 -5 -4 12 -5 25 -1 30 9 15 14 10 7 -8z m467 -13 c0
-5 -8 -10 -17 -10 -15 0 -16 2 -3 10 19 12 20 12 20 0z m-1380 -44 c0 -17 -26
-3 -27 14 -2 18 0 18 13 6 8 -8 14 -17 14 -20z m33 27 c-7 -2 -19 -2 -25 0 -7
3 -2 5 12 5 14 0 19 -2 13 -5z m197 -2 c0 -3 -5 -13 -10 -21 -8 -13 -10 -12
-10 4 0 20 0 20 -15 0 -9 -12 -14 -14 -15 -6 0 7 -4 10 -10 7 -5 -3 -10 -2
-10 3 0 5 -7 9 -15 9 -8 0 -15 -5 -15 -10 0 -6 -3 -8 -6 -4 -14 14 8 23 55 23
28 1 51 -2 51 -5z m40 2 c0 -5 -5 -15 -10 -23 -9 -13 -10 -13 -10 0 0 13 -1
13 -10 0 -11 -17 -13 -10 -4 14 6 16 34 23 34 9z m12 -25 c-8 -8 -9 -4 -5 13
4 13 8 18 11 10 2 -7 -1 -18 -6 -23z m38 25 c0 -5 -5 -15 -10 -23 -8 -12 -10
-11 -10 8 0 12 5 22 10 22 6 0 10 -3 10 -7z m23 -10 c-5 -15 -3 -14 10 2 16
20 16 20 17 1 0 -20 0 -20 15 0 11 14 14 15 15 4 0 -13 1 -13 10 0 8 12 10 12
10 -5 1 -19 1 -19 11 -1 9 15 13 16 20 5 5 -8 9 -18 9 -24 0 -5 -5 -3 -10 5
-5 8 -10 10 -10 5 0 -6 -27 -12 -60 -13 -33 -1 -60 0 -60 2 0 2 3 11 6 20 8
22 25 20 17 -1z m557 2 c0 -11 -9 -15 -30 -13 -16 1 -30 6 -30 11 0 5 6 7 13
4 8 -3 20 -1 28 4 19 12 19 11 19 -6z m-410 -7 c0 6 7 12 15 12 8 0 15 -5 15
-11 0 -5 -4 -8 -9 -5 -5 4 -11 1 -13 -6 -5 -14 -28 -2 -28 15 0 7 4 6 10 -3 6
-10 10 -11 10 -2z m47 -10 c-3 -8 -6 -5 -6 6 -1 11 2 17 5 13 3 -3 4 -12 1
-19z m66 14 c4 8 6 7 6 -4 1 -13 -7 -18 -24 -18 -24 0 -32 10 -18 23 3 4 12 2
19 -4 8 -7 14 -6 17 3z m38 -15 c-10 -9 -11 -8 -5 6 3 10 9 15 12 12 3 -3 0
-11 -7 -18z m55 16 c-10 -11 -36 -12 -36 -2 0 5 10 9 22 9 12 0 18 -3 14 -7z
m91 1 c-3 -3 -12 -4 -19 -1 -8 3 -5 6 6 6 11 1 17 -2 13 -5z m488 -12 c3 -8 3
-17 0 -20 -3 -3 -5 1 -5 9 0 11 -2 12 -9 1 -6 -11 -9 -9 -13 5 -6 23 18 27 27
5z m25 -2 c0 -11 -2 -20 -4 -20 -2 0 -6 9 -9 20 -3 11 -1 20 4 20 5 0 9 -9 9
-20z m-1240 0 c0 -5 -4 -10 -10 -10 -5 0 -10 5 -10 10 0 6 5 10 10 10 6 0 10
-4 10 -10z m1280 6 c0 -3 -4 -8 -10 -11 -5 -3 -10 -1 -10 4 0 6 5 11 10 11 6
0 10 -2 10 -4z"/>
<path d="M1969 3626 c13 -16 51 -41 51 -33 0 2 -15 14 -32 27 -21 15 -28 17
-19 6z"/>
<path d="M1968 3593 c13 -13 28 -23 35 -23 7 0 3 6 -8 12 -11 6 -27 16 -35 22
-9 6 -5 1 8 -11z"/>
<path d="M1759 3448 c-13 -18 -24 -43 -24 -56 -1 -22 0 -21 22 5 33 39 49 68
32 58 -9 -6 -11 -3 -6 8 9 25 4 21 -24 -15z m2 -31 l-23 -22 17 28 c10 15 20
25 23 22 3 -3 -5 -16 -17 -28z"/>
<path d="M1729 3466 c0 -1 -2 -9 -4 -19 -3 -18 -3 -18 16 -1 10 9 19 18 19 19
0 2 -29 3 -31 1z"/>
<path d="M2455 3433 c17 -16 32 -28 34 -26 7 4 -21 34 -43 45 -15 7 -12 1 9
-19z"/>
<path d="M1776 3393 c-22 -35 -27 -46 -12 -28 27 31 34 28 16 -6 -6 -10 -8
-19 -6 -19 9 0 36 57 30 63 -3 3 -1 15 6 26 21 41 2 20 -34 -36z"/>
<path d="M2640 3389 c-17 -13 -18 -17 -5 -10 33 17 51 31 40 31 -5 0 -21 -10
-35 -21z"/>
<path d="M2469 3385 c17 -34 31 -51 31 -39 0 7 -9 22 -21 35 -16 19 -18 20
-10 4z"/>
<path d="M2639 3360 c-13 -10 -20 -19 -15 -20 5 0 3 -7 -4 -15 -11 -13 -10
-14 6 -8 17 6 18 5 4 -11 -24 -31 -22 -48 5 -28 12 9 20 19 16 22 -11 9 -7 30
9 41 11 8 9 9 -10 4 l-25 -6 25 20 c14 11 22 21 19 21 -4 0 -17 -9 -30 -20z"/>
<path d="M2476 3327 c3 -10 9 -15 12 -12 3 3 0 11 -7 18 -10 9 -11 8 -5 -6z"/>
<path d="M2463 3284 c19 -23 23 -39 6 -28 -9 5 6 -25 28 -55 1 -2 1 11 -2 29
-2 19 -14 43 -27 54 l-22 21 17 -21z"/>
<path d="M2654 3271 c-18 -11 -35 -25 -40 -33 -4 -7 1 -5 12 4 11 9 35 24 54
32 19 8 28 15 20 16 -8 0 -29 -9 -46 -19z"/>
<path d="M2551 3032 c-1 -39 -5 -61 -11 -57 -14 9 -12 -8 3 -24 10 -11 9 -12
-2 -6 -11 6 -13 4 -7 -11 5 -10 10 -35 11 -54 l3 -35 -25 30 -25 30 27 -47
c21 -38 26 -61 28 -127 1 -53 5 -76 12 -70 13 13 11 330 -3 389 l-10 45 -1
-63z"/>
<path d="M1896 3061 c5 -5 25 -12 44 -15 l35 -6 -35 14 c-42 17 -58 20 -44 7z"/>
<path d="M1800 3023 c0 -2 28 -17 63 -33 74 -35 168 -52 295 -52 50 0 92 -4
92 -8 0 -4 -9 -20 -21 -36 -16 -23 -14 -22 9 4 23 26 35 32 52 27 18 -6 19 -9
8 -23 -9 -12 -6 -11 10 2 17 15 22 16 22 5 0 -8 -6 -21 -12 -29 -7 -8 -4 -7 8
3 28 23 37 21 29 -5 -7 -23 -7 -23 9 -3 17 20 17 20 11 -5 -6 -25 -6 -25 11
-5 16 20 16 20 11 -3 -3 -12 -1 -20 3 -17 5 3 10 2 13 -2 2 -5 2 -1 0 7 -6 21
55 -47 89 -99 36 -58 36 -46 -1 27 -33 65 -110 143 -167 168 -30 13 -83 18
-224 23 -168 6 -191 9 -247 33 -35 14 -63 24 -63 21z"/>
<path d="M2505 2976 c10 -14 19 -26 22 -26 7 0 -17 39 -28 46 -6 3 -3 -5 6
-20z"/>
<path d="M2490 2954 c14 -17 31 -40 38 -50 7 -11 6 -7 -2 11 -8 17 -24 39 -37
50 -23 19 -22 19 1 -11z"/>
<path d="M3340 2960 c-19 -11 -28 -19 -20 -20 31 -1 -19 -21 -77 -30 l-58 -9
57 4 c47 3 135 33 103 35 -5 0 1 9 15 20 31 25 25 25 -20 0z"/>
<path d="M2636 2934 c-5 -14 -4 -15 9 -4 17 14 19 20 6 20 -5 0 -12 -7 -15
-16z"/>
<path d="M2653 2914 l-28 -26 33 22 c29 20 39 30 28 30 -3 0 -18 -12 -33 -26z"/>
<path d="M3520 2936 c0 -2 8 -10 18 -17 15 -13 16 -12 3 4 -13 16 -21 21 -21
13z"/>
<path d="M2053 2917 c-4 -6 -1 -7 7 -2 10 6 12 4 7 -8 -9 -23 0 -22 12 1 8 14
6 19 -5 19 -8 0 -18 -5 -21 -10z"/>
<path d="M2086 2892 l-29 -37 34 32 c18 18 31 35 28 37 -3 3 -18 -12 -33 -32z"/>
<path d="M2122 2898 c-22 -35 -19 -57 5 -36 8 7 25 13 37 13 27 0 43 11 56 38
8 16 4 14 -16 -8 -18 -21 -24 -24 -20 -11 7 20 7 20 -15 0 l-22 -19 13 25 c13
24 12 24 -5 10 -17 -14 -18 -13 -12 3 10 26 1 20 -21 -15z m4 -26 c-18 -16
-18 -16 -6 6 6 13 14 21 18 18 3 -4 -2 -14 -12 -24z"/>
<path d="M3434 2899 c-89 -50 -147 -59 -369 -57 -226 1 -262 -6 -365 -74 -55
-37 -104 -90 -93 -102 9 -8 33 14 33 30 0 7 5 16 10 19 21 13 9 -25 -17 -56
-31 -36 -30 -36 47 16 31 21 62 34 72 32 10 -3 39 2 65 10 34 11 114 18 273
23 244 8 291 17 387 72 70 39 78 54 10 17 -87 -47 -160 -59 -364 -59 -101 0
-183 4 -183 8 0 5 7 17 16 28 14 18 15 18 9 -6 l-6 -25 15 25 c14 22 21 21 17
-4 -1 -5 4 -5 11 1 7 5 58 11 113 12 169 3 271 31 351 96 37 31 31 30 -32 -6z
m-494 -91 c0 -21 -14 -34 -37 -35 -25 -2 -28 4 -13 27 9 13 11 13 20 0 8 -13
10 -12 10 3 0 9 5 17 10 17 6 0 10 -6 10 -12z m-65 -16 c-3 -7 -5 -18 -5 -24
0 -6 -7 -8 -15 -5 -8 4 -17 1 -21 -5 -4 -7 -9 -6 -15 3 -5 9 -9 10 -9 2 0 -11
-60 -37 -68 -29 -7 7 9 46 18 46 5 0 8 -6 6 -12 -1 -7 -1 -10 1 -5 3 4 9 4 15
1 5 -3 12 3 15 15 6 23 23 29 23 9 0 -8 5 -6 10 4 12 20 53 20 45 0z m-154
-75 c-13 -13 -15 1 -4 30 7 17 8 17 11 -1 2 -10 -1 -23 -7 -29z m-19 8 c-2
-14 -8 -25 -12 -25 -14 0 -19 27 -7 39 18 18 25 13 19 -14z"/>
<path d="M2264 2898 l-19 -23 23 19 c21 18 27 26 19 26 -2 0 -12 -10 -23 -22z"/>
<path d="M2659 2879 l-24 -20 28 17 c15 9 27 18 27 20 0 8 -8 4 -31 -17z"/>
<path d="M2491 2860 c29 -46 29 -45 29 -32 0 6 -12 24 -26 39 l-26 28 23 -35z"/>
<path d="M2679 2860 l-24 -21 33 16 c31 15 41 25 23 25 -5 0 -19 -9 -32 -20z"/>
<path d="M2713 2840 c-46 -27 -41 -34 5 -8 46 27 48 28 36 28 -5 0 -24 -9 -41
-20z"/>
<path d="M2393 2763 c-9 -13 -14 -15 -20 -6 -6 8 -13 8 -27 -3 -19 -13 -18
-14 11 -14 17 0 37 8 48 20 10 11 14 20 9 20 -5 0 -14 -8 -21 -17z"/>
<path d="M2426 2753 c-6 -14 -5 -15 5 -6 7 7 10 15 7 18 -3 3 -9 -2 -12 -12z"/>
<path d="M2441 2737 c-13 -21 -12 -21 5 -5 10 10 16 20 13 22 -3 3 -11 -5 -18
-17z"/>
<path d="M3505 2734 l-30 -15 30 6 30 5 -35 -20 c-26 -16 -29 -19 -10 -14 24
7 70 33 70 40 0 2 -7 0 -17 -3 -11 -4 -14 -3 -9 5 9 14 9 14 -29 -4z"/>
<path d="M3298 2723 c7 -3 16 -2 19 1 4 3 -2 6 -13 5 -11 0 -14 -3 -6 -6z"/>
<path d="M2475 2711 c-3 -5 -1 -12 5 -16 5 -3 10 -3 10 1 0 4 7 -1 15 -12 14
-18 14 -17 4 9 -13 28 -24 34 -34 18z"/>
<path d="M3248 2713 c6 -2 18 -2 25 0 6 3 1 5 -13 5 -14 0 -19 -2 -12 -5z"/>
<path d="M3188 2703 c6 -2 18 -2 25 0 6 3 1 5 -13 5 -14 0 -19 -2 -12 -5z"/>
<path d="M2735 2690 c-3 -6 1 -7 9 -4 18 7 21 14 7 14 -6 0 -13 -4 -16 -10z"/>
<path d="M3108 2693 c12 -2 30 -2 40 0 9 3 -1 5 -23 4 -22 0 -30 -2 -17 -4z"/>
<path d="M3018 2683 c12 -2 32 -2 45 0 12 2 2 4 -23 4 -25 0 -35 -2 -22 -4z"/>
<path d="M2731 2656 c-18 -14 -40 -35 -49 -48 -14 -19 15 3 83 63 19 18 -2 8
-34 -15z"/>
<path d="M2933 2673 c9 -2 25 -2 35 0 9 3 1 5 -18 5 -19 0 -27 -2 -17 -5z"/>
<path d="M2268 2663 c7 -3 16 -2 19 1 4 3 -2 6 -13 5 -11 0 -14 -3 -6 -6z"/>
<path d="M2465 2631 c21 -22 41 -41 43 -41 10 0 -43 62 -61 71 -14 7 -8 -4 18
-30z"/>
<path d="M2878 2663 c6 -2 18 -2 25 0 6 3 1 5 -13 5 -14 0 -19 -2 -12 -5z"/>
<path d="M2345 2644 l40 -13 -40 4 c-45 5 -40 1 27 -19 27 -8 45 -10 42 -5 -7
12 3 11 28 -2 13 -7 18 -7 14 -1 -8 13 -111 52 -134 51 -9 0 1 -7 23 -15z m62
-20 c-3 -3 -12 -4 -19 -1 -8 3 -5 6 6 6 11 1 17 -2 13 -5z"/>
<path d="M2587 2653 c-4 -3 -7 -11 -7 -17 0 -6 5 -5 12 2 6 6 9 14 7 17 -3 3
-9 2 -12 -2z"/>
<path d="M2521 2633 c7 -12 15 -20 18 -17 3 2 -3 12 -13 22 -17 16 -18 16 -5
-5z"/>
<path d="M2805 2640 c-3 -6 1 -7 9 -4 18 7 21 14 7 14 -6 0 -13 -4 -16 -10z"/>
<path d="M2063 2623 c15 -2 39 -2 55 0 15 2 2 4 -28 4 -30 0 -43 -2 -27 -4z"/>
<path d="M2639 2615 c-15 -8 -30 -22 -33 -32 -6 -15 -3 -14 16 3 13 12 32 26
43 32 11 6 16 11 10 11 -5 0 -22 -6 -36 -14z"/>
<path d="M2940 2620 c-16 -6 -6 -7 30 -3 30 3 57 7 59 9 8 7 -64 2 -89 -6z"/>
<path d="M1988 2613 c6 -2 18 -2 25 0 6 3 1 5 -13 5 -14 0 -19 -2 -12 -5z"/>
<path d="M2865 2600 c-13 -5 -14 -9 -5 -9 8 0 24 4 35 9 13 5 14 9 5 9 -8 0
-24 -4 -35 -9z"/>
<path d="M3133 2603 c9 -2 25 -2 35 0 9 3 1 5 -18 5 -19 0 -27 -2 -17 -5z"/>
<path d="M3048 2593 c12 -2 32 -2 45 0 12 2 2 4 -23 4 -25 0 -35 -2 -22 -4z"/>
<path d="M1590 2580 c25 -8 137 -13 129 -6 -2 2 -38 6 -79 8 -42 3 -64 2 -50
-2z"/>
<path d="M2253 2583 c15 -2 37 -2 50 0 12 2 0 4 -28 4 -27 0 -38 -2 -22 -4z"/>
<path d="M2748 2574 c-39 -21 -35 -28 5 -8 37 19 44 24 31 24 -5 -1 -21 -8
-36 -16z"/>
<path d="M2800 2575 c-14 -8 -20 -14 -15 -14 6 0 21 6 35 14 14 8 21 14 15 14
-5 0 -21 -6 -35 -14z"/>
<path d="M2968 2583 c12 -2 30 -2 40 0 9 3 -1 5 -23 4 -22 0 -30 -2 -17 -4z"/>
<path d="M2095 2560 c-94 -24 -72 -24 40 -1 50 11 77 20 60 19 -16 0 -61 -8
-100 -18z"/>
<path d="M2918 2573 c7 -3 16 -2 19 1 4 3 -2 6 -13 5 -11 0 -14 -3 -6 -6z"/>
<path d="M2370 2546 c28 -17 50 -21 35 -7 -6 5 -21 12 -35 15 l-25 7 25 -15z"/>
<path d="M1988 2533 c6 -2 18 -2 25 0 6 3 1 5 -13 5 -14 0 -19 -2 -12 -5z"/>
<path d="M1923 2523 c9 -2 25 -2 35 0 9 3 1 5 -18 5 -19 0 -27 -2 -17 -5z"/>
<path d="M1858 2513 c6 -2 18 -2 25 0 6 3 1 5 -13 5 -14 0 -19 -2 -12 -5z"/>
<path d="M1518 2503 c6 -2 18 -2 25 0 6 3 1 5 -13 5 -14 0 -19 -2 -12 -5z"/>
<path d="M2328 2503 c12 -2 30 -2 40 0 9 3 -1 5 -23 4 -22 0 -30 -2 -17 -4z"/>
<path d="M1588 2493 c18 -2 45 -2 60 0 15 2 0 4 -33 4 -33 0 -45 -2 -27 -4z"/>
<path d="M1698 2483 c7 -3 16 -2 19 1 4 3 -2 6 -13 5 -11 0 -14 -3 -6 -6z"/>
<path d="M1868 2483 c17 -2 47 -2 65 0 17 2 3 4 -33 4 -36 0 -50 -2 -32 -4z"/>
<path d="M1533 2473 c26 -2 68 -2 95 0 26 2 4 3 -48 3 -52 0 -74 -1 -47 -3z"/>
<path d="M2183 2473 c37 -2 96 -2 130 0 34 2 4 3 -68 3 -71 0 -99 -1 -62 -3z"/>
<path d="M1471 2834 c0 -11 3 -14 6 -6 3 7 2 16 -1 19 -3 4 -6 -2 -5 -13z"/>
<path d="M1475 2730 c-4 -23 -5 -43 -2 -46 2 -3 7 14 11 37 4 23 5 44 2 46 -2
2 -7 -14 -11 -37z"/>
<path d="M1461 2654 c0 -11 3 -14 6 -6 3 7 2 16 -1 19 -3 4 -6 -2 -5 -13z"/>
<path d="M1590 2762 c0 -7 -4 -11 -9 -8 -16 11 -33 -21 -22 -42 7 -13 7 -23
-2 -32 -10 -12 -9 -12 4 -2 9 6 18 9 21 6 3 -3 16 9 28 26 17 23 20 34 11 43
-6 6 -11 7 -11 2 0 -6 -5 -3 -10 5 -7 11 -10 11 -10 2z m0 -22 c0 13 1 13 10
0 8 -12 10 -12 10 -1 0 8 3 12 6 9 3 -4 -2 -18 -12 -33 -16 -25 -19 -26 -30
-10 -7 9 -10 24 -7 32 5 12 7 12 14 1 7 -10 9 -10 9 2z"/>
<path d="M1577 2713 c3 -7 6 -13 8 -13 2 0 5 6 8 13 3 8 -1 14 -8 14 -7 0 -11
-6 -8 -14z"/>
<path d="M1662 2723 c-5 -10 -7 -25 -5 -33 3 -10 0 -9 -7 3 -6 9 -8 22 -5 27
15 25 -6 7 -26 -22 -16 -22 -17 -28 -6 -19 20 16 23 2 5 -19 -11 -12 -10 -12
5 -1 9 7 17 10 17 6 0 -5 9 0 20 10 22 20 28 8 8 -15 -11 -12 -10 -12 2 -3 8
6 23 26 33 45 l19 33 -22 -25 c-16 -18 -20 -20 -16 -7 4 12 2 16 -6 11 -8 -5
-9 -2 -5 9 8 22 0 22 -11 0z"/>
<path d="M1731 2707 c-8 -12 -21 -32 -29 -44 -8 -13 -12 -23 -10 -23 8 0 61
80 57 85 -3 2 -11 -6 -18 -18z"/>
<path d="M1825 2678 c-16 -25 -21 -37 -11 -29 16 14 51 71 43 71 -3 0 -17 -19
-32 -42z"/>
<path d="M1940 2705 c-7 -9 -10 -18 -7 -21 3 -3 10 4 17 15 13 25 8 27 -10 6z"/>
<path d="M1765 2668 c-16 -24 -22 -38 -14 -31 15 12 53 73 46 73 -2 0 -17 -19
-32 -42z"/>
<path d="M1860 2678 c-15 -21 -17 -28 -6 -19 16 13 41 51 33 51 -2 0 -14 -15
-27 -32z"/>
<path d="M1895 2684 c-9 -15 -12 -23 -6 -20 11 7 35 46 28 46 -3 0 -12 -12
-22 -26z"/>
<path d="M1795 2674 c-9 -15 -12 -23 -6 -20 11 7 35 46 28 46 -3 0 -12 -12
-22 -26z"/>
<path d="M2290 2102 c-59 -18 -48 -132 12 -132 25 0 48 11 48 23 0 7 -4 7 -12
-1 -28 -28 -78 -1 -78 44 0 13 9 33 20 44 16 16 25 18 45 10 15 -6 24 -6 21
-1 -8 12 -38 19 -56 13z"/>
<path d="M2859 2096 c-51 -25 -46 -109 7 -122 33 -8 56 5 68 40 21 57 -25 107
-75 82z m62 -30 c16 -35 4 -74 -26 -82 -35 -9 -55 11 -55 56 0 44 5 50 42 50
20 0 32 -7 39 -24z"/>
<path d="M2121 2045 c-22 -58 -28 -97 -9 -57 15 30 67 31 75 2 3 -11 9 -20 14
-20 11 0 -36 123 -49 128 -6 2 -20 -22 -31 -53z m47 8 c10 -31 10 -33 -14 -33
-27 0 -29 6 -14 46 12 31 13 30 28 -13z"/>
<path d="M2410 2035 l0 -65 43 2 42 1 -37 4 -37 4 0 54 c1 53 2 54 33 58 29 4
29 4 -6 5 l-38 2 0 -65z"/>
<path d="M2542 2033 c0 -38 3 -53 5 -35 3 26 9 32 28 32 17 0 26 -8 34 -32 6
-17 14 -29 17 -25 3 3 -1 20 -9 36 -9 17 -12 31 -7 31 12 0 20 28 14 45 -4 10
-20 15 -45 15 l-39 0 2 -67z m66 35 c-2 -17 -11 -24 -30 -26 -24 -3 -28 0 -28
22 0 22 4 26 31 26 26 0 30 -3 27 -22z"/>
<path d="M2694 2038 c13 -34 28 -64 33 -65 5 -2 18 26 30 62 12 36 17 63 12
59 -5 -3 -9 -11 -9 -17 0 -7 -9 -30 -19 -52 l-18 -40 -18 58 c-10 31 -22 57
-26 57 -5 0 2 -28 15 -62z"/>
<path d="M2195 1777 c56 -22 74 -37 100 -81 47 -80 46 -189 -3 -248 l-27 -33
35 22 c111 68 108 258 -5 319 -22 12 -60 24 -85 27 -43 6 -43 5 -15 -6z"/>
<path d="M2655 1776 c43 -19 66 -49 67 -86 l1 -33 28 34 c16 19 27 39 26 44
-4 15 -66 42 -112 49 l-40 6 30 -14z"/>
<path d="M3007 1772 c-15 -9 -27 -23 -27 -32 0 -12 2 -12 9 -2 6 9 23 -24 55
-102 25 -64 46 -118 46 -121 0 -2 -48 -6 -107 -8 l-108 -3 112 -2 111 -2 10
-30 c9 -23 8 -33 -4 -45 -14 -13 -9 -15 42 -15 53 0 56 1 42 18 -8 9 -45 94
-82 187 -38 94 -69 171 -70 172 0 1 -14 -6 -29 -15z"/>
<path d="M4226 1771 c74 -34 124 -120 124 -213 0 -41 -32 -112 -57 -127 -10
-6 -12 -11 -6 -11 23 0 92 71 104 107 6 19 9 59 7 88 -8 93 -69 155 -168 169
l-45 6 41 -19z"/>
<path d="M659 1762 c7 -12 11 -80 11 -166 0 -133 -2 -148 -20 -166 l-20 -20
103 2 c56 0 86 3 67 5 -87 9 -80 -8 -80 183 l0 170 50 0 c41 0 56 -5 75 -25
27 -26 34 -82 13 -103 -8 -8 -8 -12 -1 -12 22 0 64 54 61 78 -6 48 -48 66
-164 70 -104 4 -106 4 -95 -16z"/>
<path d="M1018 1768 c17 -17 17 -329 0 -346 -9 -9 -1 -12 38 -11 27 0 43 3 37
6 -10 3 -13 49 -13 178 0 129 3 175 13 178 6 3 -10 6 -37 6 -39 1 -47 -2 -38
-11z"/>
<path d="M1168 1769 c8 -9 12 -58 12 -168 0 -130 -3 -157 -17 -173 -15 -17
-12 -18 83 -16 54 0 83 3 64 5 -87 9 -80 -8 -80 183 l0 170 53 0 c44 0 58 -4
77 -25 19 -20 22 -32 18 -69 -5 -42 -4 -45 14 -35 47 25 48 96 1 119 -39 19
-243 27 -225 9z"/>
<path d="M1528 1768 c8 -8 12 -60 12 -169 0 -128 -3 -160 -15 -173 -14 -13 -1
-15 119 -18 l135 -3 6 33 c3 18 9 40 12 48 3 7 -13 -4 -35 -26 -38 -39 -42
-40 -106 -40 l-66 0 0 168 c0 117 4 172 12 180 9 9 1 12 -37 12 -38 0 -46 -3
-37 -12z"/>
<path d="M1860 1761 c5 -11 10 -85 10 -170 0 -123 -3 -152 -16 -165 -14 -15
-11 -16 38 -16 31 0 48 4 40 9 -10 6 -12 48 -10 184 l3 177 -38 0 c-34 0 -37
-2 -27 -19z"/>
<path d="M3258 1764 c21 -15 22 -21 22 -173 0 -109 -4 -161 -12 -169 -9 -9 -5
-12 20 -12 32 0 32 0 17 24 -13 19 -15 50 -13 157 l3 134 138 -163 137 -163 0
178 c0 126 4 183 12 191 9 9 5 12 -20 12 -32 0 -32 0 -17 -24 12 -19 15 -48
13 -142 l-3 -119 -119 143 c-117 140 -120 142 -160 142 -39 0 -40 0 -18 -16z"/>
<path d="M3636 1758 c-3 -13 -6 -32 -5 -43 0 -17 2 -17 14 5 15 28 45 47 85
53 14 2 0 5 -31 6 -51 1 -57 -1 -63 -21z"/>
<path d="M3768 1608 c3 -154 1 -174 -14 -185 -15 -11 -9 -13 41 -13 50 0 56 2
41 13 -15 11 -17 31 -14 185 l3 172 -30 0 -30 0 3 -172z"/>
<path d="M3887 1773 c26 -5 53 -38 54 -68 0 -14 5 -9 14 15 22 57 20 60 -37
59 -29 -1 -43 -4 -31 -6z"/>
<path d="M2050 1732 c-90 -90 -73 -238 35 -299 22 -13 54 -23 70 -23 l30 0
-30 16 c-45 23 -61 41 -86 92 -30 64 -30 157 0 206 12 19 27 37 34 40 8 3 8 5
-2 5 -7 1 -30 -16 -51 -37z"/>
<path d="M2524 1751 c-65 -40 -96 -119 -80 -205 15 -77 97 -136 191 -136 49 0
115 21 115 36 0 2 -9 0 -19 -6 -11 -5 -42 -10 -69 -10 -66 0 -109 30 -144 99
-42 83 -36 156 20 214 30 32 28 34 -14 8z"/>
<path d="M4071 1734 c-49 -43 -65 -90 -58 -161 9 -86 66 -149 143 -159 34 -5
36 -4 19 7 -63 38 -100 97 -111 178 -8 60 15 132 49 156 12 8 16 15 9 15 -6 0
-30 -16 -51 -36z"/>
<path d="M2956 1685 c-9 -26 -7 -32 5 -12 6 10 9 21 6 23 -2 3 -7 -2 -11 -11z"/>
<path d="M830 1620 c0 -5 6 -10 13 -10 46 0 75 -78 53 -141 -13 -36 -12 -38 5
-29 41 22 61 86 43 135 -11 27 -114 68 -114 45z"/>
<path d="M1340 1621 c0 -5 11 -12 25 -15 47 -12 70 -93 40 -149 -9 -19 -10
-25 -2 -21 84 47 86 137 5 174 -47 21 -68 25 -68 11z"/>
<path d="M2926 1615 c-9 -26 -7 -32 5 -12 6 10 9 21 6 23 -2 3 -7 -2 -11 -11z"/>
<path d="M2896 1545 c-9 -26 -7 -32 5 -12 6 10 9 21 6 23 -2 3 -7 -2 -11 -11z"/>
<path d="M2860 1460 c-7 -17 -20 -35 -29 -40 -12 -7 -6 -9 23 -10 33 0 37 2
26 15 -7 8 -10 25 -6 40 9 34 1 31 -14 -5z"/>
</g>
</svg>
